<?xml version="1.0" standalone="no"?><!DOCTYPE svg PUBLIC "-//W3C//DTD SVG 1.1//EN" "http://www.w3.org/Graphics/SVG/1.1/DTD/svg11.dtd"><svg t="1583723765630" class="icon" viewBox="0 0 1024 1024" version="1.1" xmlns="http://www.w3.org/2000/svg" p-id="2608" xmlns:xlink="http://www.w3.org/1999/xlink" width="200" height="200"><defs><style type="text/css"></style></defs><path d="M899.724579 64.021106 123.688044 64.021106c-32.975019 0-59.705823 26.731828-59.705823 59.705823l0 776.036535c0 32.975019 26.731828 59.705823 59.705823 59.705823l776.036535 0c32.975019 0 59.705823-26.731828 59.705823-59.705823L959.430402 123.726929C959.430402 90.75191 932.698574 64.021106 899.724579 64.021106zM895.469672 869.571838c0 14.32424-11.612479 25.936719-25.936719 25.936719L153.87967 895.508557c-14.32424 0-25.936719-11.612479-25.936719-25.936719L127.942951 153.918555c0-14.32424 11.612479-25.936719 25.936719-25.936719l715.653283 0c14.32424 0 25.936719 11.612479 25.936719 25.936719L895.469672 869.571838z" p-id="2609"></path></svg>