<?xml version="1.0" standalone="no"?><!DOCTYPE svg PUBLIC "-//W3C//DTD SVG 1.1//EN" "http://www.w3.org/Graphics/SVG/1.1/DTD/svg11.dtd"><svg t="1583723761067" class="icon" viewBox="0 0 1024 1024" version="1.1" xmlns="http://www.w3.org/2000/svg" p-id="2485" xmlns:xlink="http://www.w3.org/1999/xlink" width="200" height="200"><defs><style type="text/css"></style></defs><path d="M129.73362471 961.20075693L764.04250917 961.20075693c35.62338955 0 64.63326533-28.90448086 64.63326534-64.63326532l0-125.76215919L895.21492695 770.80533242c35.63217246 0 64.63326533-28.90448086 64.63326534-64.6332662l-1e-8-577.70317706c0-35.62338955-28.90448086-64.63326533-64.63326533-64.63326533l-574.69064677 0c-35.62338955 0-64.63326533 28.90448086-64.63326622 64.63326533L255.89101396 194.00679248l-126.06077725 0c-35.62338955 0-64.63326533 28.90448086-64.63326621 64.63326533L65.19697051 896.56749159c-0.096612 35.72878448 28.80786973 64.63326533 64.5366542 64.63326534zM320.02365518 128.57428407l0-0.10539492c0-0.09661201 0.20200605-0.20200605 0.20200605-0.20200693L895.21492695 128.26688223c0.09661201 0 0.20200605 0.20200605 0.20200606 0.20200693L895.416933 706.37407315c0 0.10539492-0.20200605 0.20200605-0.20200605 0.20200605l-0.10539491 0-66.53915157-0.09661201s1.50187412-477.03372626 1.50187324-480.34487461c0-17.75899776-14.3512374-32.11023516-32.11023516-32.11023428l-477.93836337-1e-8 0-65.45007422zM764.34112724 896.76949765c0 0.09661201-0.20200605 0.20200605-0.20200605 0.20200694l-634.5108914 0c-0.09661201 0-0.20200605-0.20200605-0.20200606-0.20200693l0-638.21726895c0-0.10539492 0.20200605-0.20200605 0.20200606-0.20200604L764.34112724 258.35022267 764.34112724 896.76949765z m0 0" p-id="2486"></path></svg>